<?xml version="1.0" standalone="no"?>
<!DOCTYPE svg PUBLIC "-//W3C//DTD SVG 20010904//EN"
 "http://www.w3.org/TR/2001/REC-SVG-20010904/DTD/svg10.dtd">
<svg version="1.0" xmlns="http://www.w3.org/2000/svg"
 width="1600.000000pt" height="1200.000000pt" viewBox="0 0 1600.000000 1200.000000"
 preserveAspectRatio="xMidYMid meet">

<g transform="translate(0.000000,1200.000000) scale(0.100000,-0.100000)"
fill="#000000" stroke="none">
<path d="M1785 8696 c-38 -17 -70 -48 -92 -89 -17 -30 -18 -168 -21 -2551 -1
-1735 1 -2530 8 -2557 13 -48 64 -107 107 -125 48 -21 12568 -21 12616 0 43
18 94 77 107 125 7 27 9 822 8 2557 l-3 2519 -23 40 c-13 22 -39 52 -59 65
l-37 25 -6290 2 c-5254 2 -6296 0 -6321 -11z m6028 -1465 c432 -97 741 -363
866 -749 40 -121 54 -217 54 -362 0 -146 -14 -241 -54 -364 -112 -342 -365
-592 -722 -711 -182 -61 -233 -65 -809 -65 l-518 0 0 1141 0 1140 543 -4 c514
-3 547 -5 640 -26z m3092 -196 l0 -220 -612 -3 -613 -2 0 -230 0 -230 540 0
540 0 0 -225 0 -225 -540 0 -540 0 2 -237 3 -238 618 -3 617 -2 0 -220 0 -220
-870 0 -870 0 0 1140 0 1140 863 -2 862 -3 0 -220z m1109 -552 c159 -428 294
-788 300 -800 9 -19 51 87 307 775 l295 797 273 3 c217 2 272 0 268 -10 -15
-40 -717 -1787 -809 -2015 l-110 -273 -223 0 -222 0 -441 1098 c-242 603 -450
1121 -461 1150 l-21 52 278 0 278 0 288 -777z m-6776 71 l-3 -276 -210 -142
c-115 -78 -403 -272 -640 -432 -236 -159 -436 -293 -442 -298 -10 -6 -13 51
-13 271 l0 278 297 200 c163 110 455 307 647 438 193 130 354 237 359 237 4 0
6 -124 5 -276z m-2303 -814 c263 -179 652 -442 892 -603 l93 -62 0 -278 0
-279 -28 19 c-16 10 -308 207 -650 437 l-622 419 0 279 c0 221 3 278 13 272 6
-4 143 -96 302 -204z"/>
<path d="M7140 6120 l0 -692 263 5 c289 5 324 10 452 72 163 79 282 228 332
415 24 90 24 301 0 390 -66 243 -230 407 -475 471 -64 17 -119 22 -324 26
l-248 6 0 -693z"/>
</g>
</svg>
